<svg height="415pt" viewBox="-31 0 415 415.99767" width="415pt" xmlns="http://www.w3.org/2000/svg" xmlns:xlink="http://www.w3.org/1999/xlink"><linearGradient id="a" gradientUnits="userSpaceOnUse" x1="37.578835" x2="333.106835" y1="332.44" y2="36.912"><stop offset="0" stop-color="#41dfd0"/><stop offset="1" stop-color="#ee83ef"/></linearGradient><path d="m88.5 272h-16v-16h16zm48.917969 68.375 20.5625 15.425781c1.582031 1.191407 2.515625 3.058594 2.519531 5.039063.011719 2.398437-1.347656 4.589844-3.496094 5.648437l-1.6875.847657c-1.765625.871093-3.835937.871093-5.601562 0l-9.601563-4.800782c-2.558593-1.304687-5.621093-1.136718-8.023437.441406-2.398438 1.578126-3.769532 4.320313-3.589844 7.1875.179688 2.871094 1.882812 5.417969 4.460938 6.683594l9.601562 4.800782c.632812.320312 1.328125.464843 1.984375.71875v1.632812c0 4.417969 3.582031 8 8 8s8-3.582031 8-8v-1.601562c.65625-.253907 1.34375-.398438 1.976563-.710938l1.6875-.847656c6.914062-3.457032 11.546874-10.25 12.242187-17.949219s-2.644531-15.210937-8.828125-19.851563l-20.566406-15.421874c-1.746094-1.316407-2.683594-3.441407-2.484375-5.621094.199219-2.175782 1.511719-4.09375 3.46875-5.066406l1.6875-.851563c1.777343-.882813 3.863281-.882813 5.640625 0l9.601562 4.800781c2.558594 1.304688 5.621094 1.136719 8.023438-.441406 2.398437-1.578125 3.769531-4.320312 3.589844-7.1875-.179688-2.867188-1.882813-5.417969-4.464844-6.683594l-9.597656-4.796875c-.660157-.285156-1.335938-.535156-2.023438-.746093v-5.023438c0-4.417969-3.582031-8-8-8s-8 3.582031-8 8v5.023438c-.671875.203124-1.332031.441406-1.976562.710937l-1.679688.839844c-6.921875 3.453125-11.558594 10.246093-12.253906 17.945312-.699219 7.703125 2.644531 15.214844 8.828125 19.855469zm95.082031-84.375h-16v-24h-96v24h-16v-24h-40c-35.347656 0-64-28.652344-64-64s28.652344-64 64-64h.359375c4.113281-45.332031 42.121094-80.046875 87.640625-80.046875s83.527344 34.714844 87.640625 80.046875h.359375c35.34375 0 64 28.652344 64 64s-28.65625 64-64 64h-8zm8-40c26.507812 0 48-21.492188 48-48s-21.492188-48-48-48h-8c-4.417969 0-8-3.582031-8-8 0-39.765625-32.238281-72-72-72-39.765625 0-72 32.234375-72 72 0 4.417969-3.582031 8-8 8h-8c-26.511719 0-48 21.492188-48 48s21.488281 48 48 48zm-168 72h16v11.199219c12.414062-19.492188 33.019531-32.277344 56-34.742188v-16.457031h16v16.433594c8.316406.894531 16.429688 3.167968 24 6.726562v-15.160156h16v25.144531c27.023438 22 35.609375 59.570313 20.824219 91.125-14.785157 31.554688-49.144531 49.003907-83.347657 42.316407-34.199218-6.683594-59.464843-35.785157-61.277343-70.585938h-4.199219zm20 52c0 33.136719 26.863281 60 60 60s60-26.863281 60-60-26.863281-60-60-60c-33.125.035156-59.964844 26.878906-60 60zm140-68h-16v16h16zm56-176c0-17.671875-14.328125-32-32-32v16c8.835938 0 16 7.164062 16 16zm32 0c-.039062-35.328125-28.671875-63.960938-64-64v16c26.496094.027344 47.972656 21.5 48 48zm32 0c-.058594-52.996094-43.003906-95.9414062-96-96v16c44.160156.046875 79.949219 35.835938 80 80zm0 0" fill="url(#a)"/></svg>